<svg width="1220" height="360" viewBox="0 0 1220 360" fill="none" xmlns="http://www.w3.org/2000/svg">
<g clip-path="url(#clip0_1001_2)">
<rect width="1220" height="360" fill="url(#paint0_linear_1001_2)"/>
<path d="M452.253 193.933C642.9 84.6007 1103.22 92.1861 1222 92.0786V514H-154V359.285C-7.59644 280.315 213.944 330.598 452.253 193.933Z" fill="url(#paint1_linear_1001_2)"/>
<g filter="url(#filter0_dd_1001_2)">
<path d="M119.5 148.1H140.4L158.1 185.1L175.8 148.1H196.7V218H174.8V192.1L161.9 218H154.3L141.4 192.1V218H119.5V148.1ZM211.68 148.1H235.38V218H211.68V148.1ZM250.344 148.1H283.944C292.61 148.1 299.477 150.267 304.544 154.6C309.61 158.933 312.144 165.233 312.144 173.5C312.144 178.7 311.11 183.133 309.044 186.8C306.977 190.4 304.044 193.233 300.244 195.3L311.244 218H287.344L278.144 198.9H273.644V218H250.344V148.1ZM278.944 181.2C285.01 181.2 288.044 178.633 288.044 173.5C288.044 168.367 285.01 165.8 278.944 165.8H273.644V181.2H278.944ZM346.648 148.1H369.048L397.048 218H372.748L368.248 205.8H347.448L342.948 218H318.648L346.648 148.1ZM363.048 188.4L357.848 172.3L352.648 188.4H363.048ZM410.094 148.1H433.794V218H410.094V148.1ZM448.758 148.1H472.458V198.1H498.558V218H448.758V148.1ZM509.59 148.1H533.29V218H509.59V148.1ZM571.554 219.5C566.954 219.5 562.321 219.033 557.654 218.1C552.987 217.167 549.187 215.9 546.254 214.3V193.7C549.987 195.833 553.921 197.433 558.054 198.5C562.254 199.567 566.121 200.1 569.654 200.1C571.654 200.1 573.087 199.9 573.954 199.5C574.821 199.1 575.254 198.467 575.254 197.6C575.254 196.4 574.587 195.4 573.254 194.6C571.921 193.733 569.087 192.333 564.754 190.4C558.354 187.6 553.687 184.5 550.754 181.1C547.887 177.633 546.454 173.433 546.454 168.5C546.454 164.233 547.621 160.467 549.954 157.2C552.354 153.867 555.687 151.267 559.954 149.4C564.287 147.533 569.221 146.6 574.754 146.6C579.287 146.6 583.321 146.967 586.854 147.7C590.387 148.433 593.754 149.567 596.954 151.1V171C590.954 167.667 585.021 166 579.154 166C574.421 166 572.054 167.033 572.054 169.1C572.054 170.1 572.587 170.933 573.654 171.6C574.787 172.267 576.787 173.167 579.654 174.3L583.354 175.8C588.087 177.8 591.721 179.8 594.254 181.8C596.787 183.733 598.587 185.967 599.654 188.5C600.721 190.967 601.254 194.1 601.254 197.9C601.254 204.633 598.787 209.933 593.854 213.8C588.921 217.6 581.487 219.5 571.554 219.5ZM648.423 219.5C640.556 219.5 633.689 218.067 627.823 215.2C622.023 212.267 617.556 208.067 614.423 202.6C611.289 197.067 609.723 190.567 609.723 183.1C609.723 175.567 611.289 169.067 614.423 163.6C617.556 158.133 622.023 153.933 627.823 151C633.689 148.067 640.556 146.6 648.423 146.6C653.556 146.6 658.089 147.033 662.023 147.9C665.956 148.767 669.589 150.167 672.923 152.1V174.5C670.056 172.367 666.789 170.833 663.123 169.9C659.523 168.967 655.323 168.5 650.523 168.5C645.323 168.5 641.223 169.767 638.223 172.3C635.289 174.767 633.823 178.367 633.823 183.1C633.823 187.833 635.323 191.467 638.323 194C641.323 196.467 645.389 197.7 650.523 197.7C655.189 197.7 659.389 197.2 663.123 196.2C666.856 195.133 670.389 193.533 673.723 191.4V213.7C666.989 217.567 658.556 219.5 648.423 219.5Z" fill="white"/>
</g>
<path d="M629.789 192.013C820.297 82.6605 1105.31 55.1075 1224 55V477H-151V322.256C-4.70284 243.272 391.653 328.704 629.789 192.013Z" fill="url(#paint2_linear_1001_2)"/>
<path d="M661.356 192.013C880.973 200.94 1137.22 55.1075 1256 55V477H-120V322.256C26.4036 243.272 407.569 181.697 661.356 192.013Z" fill="url(#paint3_linear_1001_2)"/>
</g>
<rect x="4" y="4" width="1212" height="352" stroke="url(#paint4_linear_1001_2)" stroke-width="8"/>
<defs>
<filter id="filter0_dd_1001_2" x="92.5" y="119.6" width="608.223" height="126.9" filterUnits="userSpaceOnUse" color-interpolation-filters="sRGB">
<feFlood flood-opacity="0" result="BackgroundImageFix"/>
<feColorMatrix in="SourceAlpha" type="matrix" values="0 0 0 0 0 0 0 0 0 0 0 0 0 0 0 0 0 0 127 0" result="hardAlpha"/>
<feOffset/>
<feGaussianBlur stdDeviation="13.5"/>
<feComposite in2="hardAlpha" operator="out"/>
<feColorMatrix type="matrix" values="0 0 0 0 0.379167 0 0 0 0 0.59025 0 0 0 0 1 0 0 0 0.25 0"/>
<feBlend mode="normal" in2="BackgroundImageFix" result="effect1_dropShadow_1001_2"/>
<feColorMatrix in="SourceAlpha" type="matrix" values="0 0 0 0 0 0 0 0 0 0 0 0 0 0 0 0 0 0 127 0" result="hardAlpha"/>
<feOffset/>
<feGaussianBlur stdDeviation="4.5"/>
<feComposite in2="hardAlpha" operator="out"/>
<feColorMatrix type="matrix" values="0 0 0 0 0.287 0 0 0 0 0.225 0 0 0 0 1 0 0 0 0.25 0"/>
<feBlend mode="normal" in2="effect1_dropShadow_1001_2" result="effect2_dropShadow_1001_2"/>
<feBlend mode="normal" in="SourceGraphic" in2="effect2_dropShadow_1001_2" result="shape"/>
</filter>
<linearGradient id="paint0_linear_1001_2" x1="0" y1="0" x2="887.209" y2="752.412" gradientUnits="userSpaceOnUse">
<stop stop-color="#1B1B1B"/>
<stop offset="1"/>
</linearGradient>
<linearGradient id="paint1_linear_1001_2" x1="1099.46" y1="101.748" x2="534.184" y2="514.253" gradientUnits="userSpaceOnUse">
<stop stop-color="#1B262C"/>
<stop offset="0.526042" stop-color="#0E1E2F"/>
<stop offset="1" stop-opacity="0"/>
</linearGradient>
<linearGradient id="paint2_linear_1001_2" x1="1101.55" y1="64.6715" x2="536.326" y2="476.761" gradientUnits="userSpaceOnUse">
<stop stop-color="#234557"/>
<stop offset="0.515625" stop-color="#071018"/>
<stop offset="1" stop-opacity="0"/>
</linearGradient>
<linearGradient id="paint3_linear_1001_2" x1="1133.46" y1="64.6715" x2="286.067" y2="419.142" gradientUnits="userSpaceOnUse">
<stop stop-color="#1C516F"/>
<stop offset="0.463542" stop-color="#16283A"/>
<stop offset="1" stop-opacity="0"/>
</linearGradient>
<linearGradient id="paint4_linear_1001_2" x1="0" y1="0" x2="887.209" y2="752.412" gradientUnits="userSpaceOnUse">
<stop stop-color="#130F41"/>
<stop offset="0.520833" stop-color="#123645"/>
<stop offset="1" stop-color="#262A8F"/>
</linearGradient>
<clipPath id="clip0_1001_2">
<rect width="1220" height="360" fill="white"/>
</clipPath>
</defs>
</svg>
