<svg width="2009" height="1005" viewBox="0 0 2009 1005" fill="none" xmlns="http://www.w3.org/2000/svg">
<g clip-path="url(#clip0_1001_2)">
<rect width="2009" height="1005" rx="100" fill="url(#paint0_linear_1001_2)"/>
<path d="M815 605.122C1110.6 435.522 1824.33 447.289 2008.5 447.122V1101.62H-125V861.622C102 739.122 445.5 817.122 815 605.122Z" fill="url(#paint1_linear_1001_2)"/>
<g filter="url(#filter0_dd_1001_2)">
<path d="M728.5 466.1H749.4L767.1 503.1L784.8 466.1H805.7V536H783.8V510.1L770.9 536H763.3L750.4 510.1V536H728.5V466.1ZM820.68 466.1H844.38V536H820.68V466.1ZM859.344 466.1H892.944C901.61 466.1 908.477 468.267 913.544 472.6C918.61 476.933 921.144 483.233 921.144 491.5C921.144 496.7 920.11 501.133 918.044 504.8C915.977 508.4 913.044 511.233 909.244 513.3L920.244 536H896.344L887.144 516.9H882.644V536H859.344V466.1ZM887.944 499.2C894.01 499.2 897.044 496.633 897.044 491.5C897.044 486.367 894.01 483.8 887.944 483.8H882.644V499.2H887.944ZM955.648 466.1H978.048L1006.05 536H981.748L977.248 523.8H956.448L951.948 536H927.648L955.648 466.1ZM972.048 506.4L966.848 490.3L961.648 506.4H972.048ZM1019.09 466.1H1042.79V536H1019.09V466.1ZM1057.76 466.1H1081.46V516.1H1107.56V536H1057.76V466.1ZM1118.59 466.1H1142.29V536H1118.59V466.1ZM1180.55 537.5C1175.95 537.5 1171.32 537.033 1166.65 536.1C1161.99 535.167 1158.19 533.9 1155.25 532.3V511.7C1158.99 513.833 1162.92 515.433 1167.05 516.5C1171.25 517.567 1175.12 518.1 1178.65 518.1C1180.65 518.1 1182.09 517.9 1182.95 517.5C1183.82 517.1 1184.25 516.467 1184.25 515.6C1184.25 514.4 1183.59 513.4 1182.25 512.6C1180.92 511.733 1178.09 510.333 1173.75 508.4C1167.35 505.6 1162.69 502.5 1159.75 499.1C1156.89 495.633 1155.45 491.433 1155.45 486.5C1155.45 482.233 1156.62 478.467 1158.95 475.2C1161.35 471.867 1164.69 469.267 1168.95 467.4C1173.29 465.533 1178.22 464.6 1183.75 464.6C1188.29 464.6 1192.32 464.967 1195.85 465.7C1199.39 466.433 1202.75 467.567 1205.95 469.1V489C1199.95 485.667 1194.02 484 1188.15 484C1183.42 484 1181.05 485.033 1181.05 487.1C1181.05 488.1 1181.59 488.933 1182.65 489.6C1183.79 490.267 1185.79 491.167 1188.65 492.3L1192.35 493.8C1197.09 495.8 1200.72 497.8 1203.25 499.8C1205.79 501.733 1207.59 503.967 1208.65 506.5C1209.72 508.967 1210.25 512.1 1210.25 515.9C1210.25 522.633 1207.79 527.933 1202.85 531.8C1197.92 535.6 1190.49 537.5 1180.55 537.5ZM1257.42 537.5C1249.56 537.5 1242.69 536.067 1236.82 533.2C1231.02 530.267 1226.56 526.067 1223.42 520.6C1220.29 515.067 1218.72 508.567 1218.72 501.1C1218.72 493.567 1220.29 487.067 1223.42 481.6C1226.56 476.133 1231.02 471.933 1236.82 469C1242.69 466.067 1249.56 464.6 1257.42 464.6C1262.56 464.6 1267.09 465.033 1271.02 465.9C1274.96 466.767 1278.59 468.167 1281.92 470.1V492.5C1279.06 490.367 1275.79 488.833 1272.12 487.9C1268.52 486.967 1264.32 486.5 1259.52 486.5C1254.32 486.5 1250.22 487.767 1247.22 490.3C1244.29 492.767 1242.82 496.367 1242.82 501.1C1242.82 505.833 1244.32 509.467 1247.32 512C1250.32 514.467 1254.39 515.7 1259.52 515.7C1264.19 515.7 1268.39 515.2 1272.12 514.2C1275.86 513.133 1279.39 511.533 1282.72 509.4V531.7C1275.99 535.567 1267.56 537.5 1257.42 537.5Z" fill="white"/>
</g>
<path d="M1090.5 602.5C1386.1 432.9 1828.33 390.167 2012.5 390V1044.5H-121V804.5C106 682 721 814.5 1090.5 602.5Z" fill="url(#paint2_linear_1001_2)"/>
<path d="M1139.5 602.5C1480.02 616.346 1877.33 390.167 2061.5 390V1044.5H-72V804.5C155 682 746 586.5 1139.5 602.5Z" fill="url(#paint3_linear_1001_2)"/>
</g>
<rect x="4" y="4" width="2001" height="997" rx="96" stroke="url(#paint4_linear_1001_2)" stroke-width="8"/>
<defs>
<filter id="filter0_dd_1001_2" x="701.5" y="437.6" width="608.223" height="126.9" filterUnits="userSpaceOnUse" color-interpolation-filters="sRGB">
<feFlood flood-opacity="0" result="BackgroundImageFix"/>
<feColorMatrix in="SourceAlpha" type="matrix" values="0 0 0 0 0 0 0 0 0 0 0 0 0 0 0 0 0 0 127 0" result="hardAlpha"/>
<feOffset/>
<feGaussianBlur stdDeviation="13.5"/>
<feComposite in2="hardAlpha" operator="out"/>
<feColorMatrix type="matrix" values="0 0 0 0 0.379167 0 0 0 0 0.59025 0 0 0 0 1 0 0 0 0.25 0"/>
<feBlend mode="normal" in2="BackgroundImageFix" result="effect1_dropShadow_1001_2"/>
<feColorMatrix in="SourceAlpha" type="matrix" values="0 0 0 0 0 0 0 0 0 0 0 0 0 0 0 0 0 0 127 0" result="hardAlpha"/>
<feOffset/>
<feGaussianBlur stdDeviation="4.5"/>
<feComposite in2="hardAlpha" operator="out"/>
<feColorMatrix type="matrix" values="0 0 0 0 0.287 0 0 0 0 0.225 0 0 0 0 1 0 0 0 0.25 0"/>
<feBlend mode="normal" in2="effect1_dropShadow_1001_2" result="effect2_dropShadow_1001_2"/>
<feBlend mode="normal" in="SourceGraphic" in2="effect2_dropShadow_1001_2" result="shape"/>
</filter>
<linearGradient id="paint0_linear_1001_2" x1="0" y1="0" x2="2009" y2="1005" gradientUnits="userSpaceOnUse">
<stop stop-color="#1B1B1B"/>
<stop offset="1"/>
</linearGradient>
<linearGradient id="paint1_linear_1001_2" x1="1818.5" y1="462.122" x2="941.75" y2="1101.62" gradientUnits="userSpaceOnUse">
<stop stop-color="#1B262C"/>
<stop offset="0.526042" stop-color="#0E1E2F"/>
<stop offset="1" stop-opacity="0"/>
</linearGradient>
<linearGradient id="paint2_linear_1001_2" x1="1822.5" y1="405" x2="945.75" y2="1044.5" gradientUnits="userSpaceOnUse">
<stop stop-color="#234557"/>
<stop offset="0.515625" stop-color="#071018"/>
<stop offset="1" stop-opacity="0"/>
</linearGradient>
<linearGradient id="paint3_linear_1001_2" x1="1871.5" y1="405" x2="557.5" y2="954.5" gradientUnits="userSpaceOnUse">
<stop stop-color="#1C516F"/>
<stop offset="0.463542" stop-color="#16283A"/>
<stop offset="1" stop-opacity="0"/>
</linearGradient>
<linearGradient id="paint4_linear_1001_2" x1="0" y1="0" x2="2009" y2="1005" gradientUnits="userSpaceOnUse">
<stop stop-color="#130F41"/>
<stop offset="0.520833" stop-color="#123645"/>
<stop offset="1" stop-color="#262A8F"/>
</linearGradient>
<clipPath id="clip0_1001_2">
<rect width="2009" height="1005" rx="100" fill="white"/>
</clipPath>
</defs>
</svg>
